<svg xmlns="http://www.w3.org/2000/svg" viewBox="0 0 156 72.69"><defs><style>.cls-1{fill:#524008;}.cls-2{fill:#f0b500;}</style></defs><g id="Capa_2" data-name="Capa 2"><g id="Capa_1-2" data-name="Capa 1"><g id="Harinas"><path class="cls-1" d="M32.68,28.43c.35.36-.75,1.51-1.17,1.11a5.45,5.45,0,0,0-4.42-1.17c-1.79.39-3.51,2-4.71,4.11-1.3,2.29-1.66,5.33-.65,6.37,1.65,1.74,5.88-3,7.18-9,.16-.75,1.91-.22,1.75.4-.42,1.6-1.27,4.5-1.59,6.53-.23,1.4-.16,2.19.65,2.19,1.46,0,3.8-2.78,5.13-6.27.1-.33,1.07.06.88.55-1.46,3.46-3.67,7.22-6.63,7.22-1.39,0-2.43-1.47-1.88-4-1.3,2.12-2.67,4.18-5,4.24-2.69.07-3.63-2.45-3.05-5.45.68-3.59,3.67-7.87,7.57-8.56A6.69,6.69,0,0,1,32.68,28.43Z"/><path class="cls-1" d="M34.27,34.15a40.69,40.69,0,0,0,2.53-7.68c-2.59-3.46,2.38-4.73,1.4-.62,1.5,1.83,4.32,4.15,3.15,5.59-1.46,1.8-2.82,3.89-2.76,5.85,0,1.11.55,1.89,1.62,1.92,1.79.07,4.33-2,6.11-6.46.13-.33,1,.13.88.55-1.92,4.77-4.45,7.68-7.54,7.51-2.11-.09-3.12-1.66-3.15-3.56,0-2.15,1.33-4.28,2.76-6.27.85-1.17-.81-2.58-1.62-3.63a38.3,38.3,0,0,1-2.5,7.29C35,34.9,34.08,34.44,34.27,34.15Z"/><path class="cls-1" d="M45.25,37.12c.72-3,1.27-5,2.6-9.77.23-.81,1.92-.29,1.79.23-1.5,5.33-1.85,6.64-2.5,9.31-.33,1.34-.55,2.46.42,2.42,1.82-.06,4.19-3.59,5.29-6.53.17-.39,1.11,0,.88.55-1.23,3.07-3.64,7.55-6.66,7.52C45.19,40.81,44.7,39.51,45.25,37.12ZM48.37,23.4a1.25,1.25,0,0,1,1.3-1.24,1.12,1.12,0,0,1,1.17,1.24,1.24,1.24,0,0,1-1.3,1.24A1.11,1.11,0,0,1,48.37,23.4Z"/><path class="cls-1" d="M63.32,31.5c-.39,1.67-1,3.34-1.43,5-.26,1.18-.72,2.81.29,2.81,1.46,0,3.7-3,5.07-6.56.13-.33,1.07.06.87.55-1.3,3.17-3.6,7.55-6.27,7.55-1.59,0-2.3-1-2.17-2.65.1-1.21,1.1-5,1.59-7.06.26-1.07.58-2.71-.75-2.74-1.59,0-4.25,2.52-5.78,5.1-.91,3.1-1.07,3.75-1.69,6.63-.13.59-2.27.62-2-.36,1.13-4.38,1.91-7.19,3.15-12.42.19-.84,2.08-.48,1.88.33-.39,1.57-.52,2.09-.91,3.46,1.2-1.82,3.54-4.5,5.85-4.47S64,28.79,63.32,31.5Z"/><path class="cls-1" d="M79.89,28.43c.35.36-.75,1.51-1.17,1.11a5.45,5.45,0,0,0-4.42-1.17c-1.79.39-3.51,2-4.71,4.11-1.3,2.29-1.66,5.33-.65,6.37,1.66,1.74,5.88-3,7.18-9,.16-.75,1.92-.22,1.75.4-.42,1.6-1.26,4.5-1.59,6.53-.23,1.4-.16,2.19.65,2.19,1.46,0,3.8-2.78,5.13-6.27.1-.33,1.07.06.88.55-1.46,3.46-3.67,7.22-6.63,7.22-1.39,0-2.43-1.47-1.88-4-1.3,2.12-2.66,4.18-5,4.24-2.7.07-3.64-2.45-3.06-5.45.68-3.59,3.67-7.87,7.57-8.56A6.68,6.68,0,0,1,79.89,28.43Z"/><path class="cls-1" d="M83,35.72c.26-.75,1.5-.39,1.37.1-.62,2.25.35,3.39,1.68,3.36a2.7,2.7,0,0,0,2.21-1.31c-.87-.68-.32-2.25.52-2,.26-2.22-2.24-5.46-2.11-8.73-1.85,1.87-2.79,4-4.35,7.52-.13.33-1-.13-.88-.46,1.56-3.85,3.09-6.73,4.91-8.23,1.65-1.41,2.82-.07,1.88.88.16,4.51,3.15,7,2.08,10.62,1.59,0,3.31-1,4.74-4.67.13-.33,1.08.09.88.55-1.72,4.31-4.06,5.46-6.11,5.26a4.61,4.61,0,0,1-4.06,2.25C83.53,40.78,81.94,38.76,83,35.72Z"/><path class="cls-1" d="M22.63,29.1a8.21,8.21,0,0,1-5.22,2.68c.94-4,1.82-8.75,3.41-12,.29-.58-1.46-1.3-1.75-.68C17.25,23,16.44,27.93,15.5,31.85l-.39,1.53c-.58,2.22-1.42,4.86-1.94,6.56-.19.65,1.78.78,1.94.23.46-1.7,1.33-4.51,1.95-6.82a9.75,9.75,0,0,0,6-3C24,29.3,23.15,28.55,22.63,29.1Z"/><path class="cls-1" d="M10,30.93c1.49-5.77,2.23-9,3.24-12.33.29-.92-1.43-1.21-1.82-.46l-.52,2c-.61,2.32-1.49,6-2.82,10.67-.1.5-.21,1-.32,1.5-.91,3.89-2.14,6.82-4.6,6.82A1.7,1.7,0,0,1,2,38.73c-.26-.26-.22-.49-.48-.66a1.1,1.1,0,0,0-1.34.19c-.39.5.06,1.44.56,1.93A3.17,3.17,0,0,0,3,40.85c3.46.1,5.21-2.93,6.51-8.45Z"/><rect class="cls-1" x="9.04" y="31.84" width="6.98" height="1.54"/></g><g id="Espiga"><path class="cls-2" d="M117.37,15.5a10.18,10.18,0,0,0,3.37-4.34,9.84,9.84,0,0,0,.71-3.94C121.25,3.08,118,.47,117.37,0a9.43,9.43,0,0,0-4.29,6.42,9.34,9.34,0,0,0,1.46,6A10.85,10.85,0,0,0,117.37,15.5Z"/><path class="cls-2" d="M110.68,34.84a10.2,10.2,0,0,0,1.23-5.13,11.12,11.12,0,0,0-.82-3.93,10.71,10.71,0,0,0-5.92-5.52,9.44,9.44,0,0,0-1.26,7.38,10.44,10.44,0,0,0,3.33,5.17A10.21,10.21,0,0,0,110.68,34.84Z"/><path class="cls-2" d="M114.73,24.79a10.92,10.92,0,0,0,.78-5.6,11.62,11.62,0,0,0-1.27-4.12,11.49,11.49,0,0,0-6.84-5.36,10.17,10.17,0,0,0-.59,8,11.35,11.35,0,0,0,4.06,5.22A10.83,10.83,0,0,0,114.73,24.79Z"/><path class="cls-2" d="M113,35.71a10.3,10.3,0,0,1,1.46-5.12,11.1,11.1,0,0,1,2.65-3.07,10.82,10.82,0,0,1,7.93-2,9.59,9.59,0,0,1-2.54,7.12,10.7,10.7,0,0,1-5.47,3A10.45,10.45,0,0,1,113,35.71Z"/><path class="cls-2" d="M117.16,24.75a10.46,10.46,0,0,1,.66-5.46,11,11,0,0,1,2.24-3.48,10.9,10.9,0,0,1,7.86-3,9.7,9.7,0,0,1-1.45,7.65,10.4,10.4,0,0,1-5.18,3.68A10.52,10.52,0,0,1,117.16,24.75Z"/><path class="cls-2" d="M121.33,40.82a9.15,9.15,0,0,0,.72-3.67,9.41,9.41,0,0,0-7.42.7,9.1,9.1,0,0,0-2.6,2.52c-.1.15-.18.3-.27.45Z"/><path class="cls-2" d="M102.93,40.82h5.23a9,9,0,0,0-.81-6.13,9.32,9.32,0,0,0-6.08-4.31,8.48,8.48,0,0,0-.86,6.88A8.11,8.11,0,0,0,102.93,40.82Z"/></g><g id="M"><polygon class="cls-1" points="26.01 45.66 26.01 72.69 21.02 72.69 21.02 53.35 19.52 55.67 13.02 65.69 6.53 55.67 6.02 54.88 6.02 72.69 0 72.69 0 45.66 6.02 45.66 13.02 57.69 16.52 51.67 20.02 45.66 26.01 45.66"/><polygon class="cls-1" points="6.02 45.66 6.02 45.66 0.05 45.66 0.04 45.66 6.02 45.66"/></g><g id="O"><path class="cls-1" d="M45.51,45.67A13.51,13.51,0,1,0,59,59.17,13.51,13.51,0,0,0,45.51,45.67Zm0,22a8.5,8.5,0,1,1,8.5-8.5A8.5,8.5,0,0,1,45.51,67.64Z"/></g><polygon id="N" class="cls-1" points="88 45.63 88 72.67 83.01 72.67 70.01 56.03 70.01 72.67 65.01 72.67 65.01 45.66 70.01 45.66 83.01 62.3 83.01 45.63 88 45.63"/><rect id="I" class="cls-1" x="95" y="45.66" width="5.01" height="27.02"/><path class="cls-1" d="M115.41,72.67a14,14,0,0,1-10.39-4l3.42-3.43A8.32,8.32,0,0,0,115,68.4a5.57,5.57,0,0,0,3.15-.87,2.76,2.76,0,0,0,1.32-2.44,2.9,2.9,0,0,0-1.26-2.48,13.3,13.3,0,0,0-3.59-1.67,15.3,15.3,0,0,1-5.88-3,6.83,6.83,0,0,1,.79-10.2,10.2,10.2,0,0,1,6.43-2.1,13.22,13.22,0,0,1,8.68,3.1l-3.21,3.35a8,8,0,0,0-5.3-2.22,4.43,4.43,0,0,0-2.8.87,2.67,2.67,0,0,0-1.13,2.2,2.75,2.75,0,0,0,1.13,2.28,15.09,15.09,0,0,0,4.09,1.83Q125,59.49,125,65a7,7,0,0,1-.86,3.47,6.42,6.42,0,0,1-2.28,2.4,12,12,0,0,1-3.06,1.33A12.45,12.45,0,0,1,115.41,72.67Z"/><path class="cls-1" d="M150,72.68l-2.38-6.38H136.34L134,72.68h-6l11.17-27h5.65l11.18,27ZM137.76,62.59h8.48L142,51.27Z"/></g></g></svg>