<svg width="512" height="512" xmlns="http://www.w3.org/2000/svg" class="svg-inline--fa fa-times-circle fa-w-16 fa-2x" role="img" data-icon="times-circle" data-prefix="fal" focusable="false" aria-hidden="true">

 <g>
  <title>Layer 1</title>
  <path id="svg_1" d="m256,8c-137,0 -248,111 -248,248s111,248 248,248s248,-111 248,-248s-111,-248 -248,-248zm0,464c-118.7,0 -216,-96.1 -216,-216c0,-118.7 96.1,-216 216,-216c118.7,0 216,96.1 216,216c0,118.7 -96.1,216 -216,216zm94.8,-285.3l-69.3,69.3l69.3,69.3c4.7,4.7 4.7,12.3 0,17l-8.5,8.5c-4.7,4.7 -12.3,4.7 -17,0l-69.3,-69.3l-69.3,69.3c-4.7,4.7 -12.3,4.7 -17,0l-8.5,-8.5c-4.7,-4.7 -4.7,-12.3 0,-17l69.3,-69.3l-69.3,-69.3c-4.7,-4.7 -4.7,-12.3 0,-17l8.5,-8.5c4.7,-4.7 12.3,-4.7 17,0l69.3,69.3l69.3,-69.3c4.7,-4.7 12.3,-4.7 17,0l8.5,8.5c4.6,4.7 4.6,12.3 0,17z" fill="currentColor"/>
 </g>
</svg>