<svg width="448" height="512" xmlns="http://www.w3.org/2000/svg" class="svg-inline--fa fa-user fa-w-14 fa-2x" role="img" data-icon="user" data-prefix="fal" focusable="false" aria-hidden="true">

 <g>
  <title>Layer 1</title>
  <path id="svg_1" d="m313.6,288c-28.7,0 -42.5,16 -89.6,16c-47.1,0 -60.8,-16 -89.6,-16c-74.2,0 -134.4,60.2 -134.4,134.4l0,41.6c0,26.5 21.5,48 48,48l352,0c26.5,0 48,-21.5 48,-48l0,-41.6c0,-74.2 -60.2,-134.4 -134.4,-134.4zm102.4,176c0,8.8 -7.2,16 -16,16l-352,0c-8.8,0 -16,-7.2 -16,-16l0,-41.6c0,-56.5 45.9,-102.4 102.4,-102.4c19.6,0 39.1,16 89.6,16c50.4,0 70,-16 89.6,-16c56.5,0 102.4,45.9 102.4,102.4l0,41.6zm-192,-208c70.7,0 128,-57.3 128,-128s-57.3,-128 -128,-128s-128,57.3 -128,128s57.3,128 128,128zm0,-224c52.9,0 96,43.1 96,96s-43.1,96 -96,96s-96,-43.1 -96,-96s43.1,-96 96,-96z" fill="currentColor"/>
 </g>
</svg>